<svg width="1520" height="813" viewBox="0 0 1520 813" fill="none" xmlns="http://www.w3.org/2000/svg">
<rect width="1520" height="813" fill="#E0F2FE"/>
<path d="M0 1.08398H254.606V813H0V1.08398Z" fill="#BFDBFE"/>
<path d="M30.5528 78.048C30.5528 70.8639 37.3922 65.04 45.8292 65.04H208.777C217.214 65.04 224.054 70.8639 224.054 78.048C224.054 85.2321 217.214 91.056 208.777 91.056H45.8292C37.3922 91.056 30.5528 85.2321 30.5528 78.048Z" fill="#93C5FD"/>
<path d="M91.6583 169.104C91.6583 165.512 95.078 162.6 99.2965 162.6H226.599C230.818 162.6 234.238 165.512 234.238 169.104C234.238 172.696 230.818 175.608 226.599 175.608H99.2965C95.078 175.608 91.6583 172.696 91.6583 169.104Z" fill="white"/>
<path d="M91.6583 238.48C91.6583 234.888 95.078 231.976 99.2965 231.976H187.136C191.354 231.976 194.774 234.888 194.774 238.48C194.774 242.072 191.354 244.984 187.136 244.984H99.2965C95.078 244.984 91.6583 242.072 91.6583 238.48Z" fill="white"/>
<path d="M91.6583 307.856C91.6583 304.264 95.078 301.352 99.2965 301.352H208.777C212.995 301.352 216.415 304.264 216.415 307.856C216.415 311.448 212.995 314.36 208.777 314.36H99.2965C95.078 314.36 91.6583 311.448 91.6583 307.856Z" fill="white"/>
<path fill-rule="evenodd" clip-rule="evenodd" d="M50.9213 183.196C60.0613 183.196 67.4707 176.887 67.4707 169.104C67.4707 161.321 60.0613 155.012 50.9213 155.012C41.7813 155.012 34.3719 161.321 34.3719 169.104C34.3719 176.887 41.7813 183.196 50.9213 183.196ZM50.9213 186.448C62.1705 186.448 71.2898 178.683 71.2898 169.104C71.2898 159.525 62.1705 151.76 50.9213 151.76C39.6721 151.76 30.5528 159.525 30.5528 169.104C30.5528 178.683 39.6721 186.448 50.9213 186.448Z" fill="#93C5FD"/>
<path d="M336.08 78.048C336.08 73.2586 340.64 69.376 346.265 69.376H493.936C499.561 69.376 504.12 73.2586 504.12 78.048C504.12 82.8374 499.561 86.72 493.936 86.72H346.265C340.64 86.72 336.08 82.8374 336.08 78.048Z" fill="#BFDBFE"/>
<path fill-rule="evenodd" clip-rule="evenodd" d="M606.6 427.704C606.674 421.521 612.443 416.256 619.857 416.256C624.408 416.256 627.755 418.174 629.891 419.98C630.486 420.483 630.996 420.985 631.424 421.447C631.851 420.985 632.362 420.483 632.956 419.98C635.093 418.174 638.44 416.256 642.991 416.256C650.405 416.256 656.173 421.521 656.248 427.704V427.704C656.389 439.763 645.01 448.106 633.572 454.717C632.939 455.084 632.19 455.28 631.424 455.28C630.658 455.28 629.909 455.084 629.276 454.717C617.837 448.106 606.457 439.763 606.6 427.704L606.6 427.704ZM633.129 425.117C633.13 425.116 633.131 425.115 633.132 425.113C633.135 425.107 633.142 425.096 633.153 425.079C633.175 425.044 633.21 424.989 633.26 424.914C633.36 424.766 633.516 424.544 633.729 424.274C634.155 423.731 634.796 423.007 635.647 422.288C637.358 420.842 639.794 419.508 642.991 419.508C648.17 419.508 652.374 423.214 652.429 427.736C652.548 437.898 642.964 445.358 631.425 452.027L631.424 452.028L631.422 452.027C619.883 445.358 610.299 437.898 610.419 427.737" fill="white"/>
<path d="M336.08 435.768C336.08 430.979 340.64 427.096 346.265 427.096H415.008C420.633 427.096 425.193 430.979 425.193 435.768C425.193 440.557 420.633 444.44 415.008 444.44H346.265C340.64 444.44 336.08 440.557 336.08 435.768Z" fill="#BFDBFE"/>
<path d="M445.561 435.768C445.561 430.979 450.121 427.096 455.745 427.096H570.318C575.943 427.096 580.502 430.979 580.502 435.768C580.502 440.557 575.943 444.44 570.318 444.44H455.745C450.121 444.44 445.561 440.557 445.561 435.768Z" fill="#BFDBFE"/>
<path d="M336.08 520.32C336.08 516.728 339.5 513.816 343.719 513.816H450.653C454.871 513.816 458.291 516.728 458.291 520.32C458.291 523.912 454.871 526.824 450.653 526.824H343.719C339.5 526.824 336.08 523.912 336.08 520.32Z" fill="white"/>
<path d="M336.08 550.672C336.08 547.08 339.5 544.168 343.719 544.168H507.939C512.158 544.168 515.577 547.08 515.577 550.672C515.577 554.264 512.158 557.176 507.939 557.176H343.719C339.5 557.176 336.08 554.264 336.08 550.672Z" fill="white"/>
<path d="M478.66 520.32C478.66 516.728 482.08 513.816 486.298 513.816H613.601C617.82 513.816 621.24 516.728 621.24 520.32C621.24 523.912 617.82 526.824 613.601 526.824H486.298C482.08 526.824 478.66 523.912 478.66 520.32Z" fill="white"/>
<path d="M336.08 162.6C336.08 159.008 339.5 156.096 343.719 156.096H450.653C454.871 156.096 458.291 159.008 458.291 162.6C458.291 166.192 454.871 169.104 450.653 169.104H343.719C339.5 169.104 336.08 166.192 336.08 162.6Z" fill="white"/>
<path d="M336.08 192.952C336.08 189.36 339.5 186.448 343.719 186.448H607.236C611.454 186.448 614.874 189.36 614.874 192.952C614.874 196.544 611.454 199.456 607.236 199.456H343.719C339.5 199.456 336.08 196.544 336.08 192.952Z" fill="white"/>
<path d="M478.66 162.6C478.66 159.008 482.08 156.096 486.298 156.096H776.549C780.768 156.096 784.188 159.008 784.188 162.6C784.188 166.192 780.768 169.104 776.549 169.104H486.298C482.08 169.104 478.66 166.192 478.66 162.6Z" fill="white"/>
<path fill-rule="evenodd" clip-rule="evenodd" d="M68.7437 224.388H35.6449V252.572H68.7437V224.388ZM31.8258 221.136V255.824H72.5628V221.136H31.8258Z" fill="#60A5FA"/>
<g clip-path="url(#clip0_1_106)">
<rect x="882.211" y="78.048" width="254.606" height="297.016" rx="20" fill="white"/>
<path d="M1051.81 375.32C1051.81 450.479 980.851 511.407 893.316 511.407C805.781 511.407 734.82 450.479 734.82 375.32C734.82 300.162 805.781 239.233 893.316 239.233C980.851 239.233 1051.81 300.162 1051.81 375.32Z" fill="#FBBF24"/>
<path fill-rule="evenodd" clip-rule="evenodd" d="M1172.7 194.257L1089.88 123.739L1019.36 206.554L1102.18 277.073L1172.7 194.257ZM1089.35 117.072L1012.7 207.089L1102.71 283.739L1179.36 193.722L1089.35 117.072Z" fill="#BFDBFE"/>
</g>
<path d="M52.1943 292.68L72.5628 322.721H31.8258L52.1943 292.68Z" fill="#93C5FD"/>
<rect x="1177.55" y="78.048" width="254.606" height="218.968" rx="20" fill="white"/>
<path fill-rule="evenodd" clip-rule="evenodd" d="M1292.09 241.316C1317.47 241.316 1337.87 223.956 1337.87 202.723C1337.87 181.489 1317.47 164.129 1292.09 164.129C1266.7 164.129 1246.3 181.489 1246.3 202.723C1246.3 223.956 1266.7 241.316 1292.09 241.316ZM1292.09 252.156C1324.41 252.156 1350.6 230.024 1350.6 202.723C1350.6 175.421 1324.41 153.289 1292.09 153.289C1259.77 153.289 1233.57 175.421 1233.57 202.723C1233.57 230.024 1259.77 252.156 1292.09 252.156Z" fill="#BFDBFE"/>
<path d="M1318.68 187.076L1329.6 127.661L1375.6 166.825L1318.68 187.076Z" fill="#FBBF24"/>
<g clip-path="url(#clip1_1_106)">
<rect x="882.211" y="409.752" width="254.606" height="331.704" rx="20" fill="white"/>
<path fill-rule="evenodd" clip-rule="evenodd" d="M1120.9 783.732C1192.27 783.732 1250.12 734.472 1250.12 673.706C1250.12 612.94 1192.27 563.68 1120.9 563.68C1049.54 563.68 991.692 612.94 991.692 673.706C991.692 734.472 1049.54 783.732 1120.9 783.732ZM1120.9 794.572C1199.3 794.572 1262.85 740.458 1262.85 673.706C1262.85 606.954 1199.3 552.84 1120.9 552.84C1042.51 552.84 978.961 606.954 978.961 673.706C978.961 740.458 1042.51 794.572 1120.9 794.572Z" fill="#FBBF24"/>
<path d="M1015.88 508.641C1015.88 529.132 996.216 545.743 971.96 545.743C947.704 545.743 928.04 529.132 928.04 508.641C928.04 488.151 947.704 471.54 971.96 471.54C996.216 471.54 1015.88 488.151 1015.88 508.641Z" fill="#BFDBFE"/>
<path fill-rule="evenodd" clip-rule="evenodd" d="M971.96 542.491C994.135 542.491 1012.06 527.311 1012.06 508.641C1012.06 489.971 994.135 474.792 971.96 474.792C949.784 474.792 931.859 489.971 931.859 508.641C931.859 527.311 949.784 542.491 971.96 542.491ZM971.96 545.743C996.216 545.743 1015.88 529.132 1015.88 508.641C1015.88 488.151 996.216 471.54 971.96 471.54C947.704 471.54 928.04 488.151 928.04 508.641C928.04 529.132 947.704 545.743 971.96 545.743Z" fill="#BFDBFE"/>
</g>
<g clip-path="url(#clip2_1_106)">
<rect x="1177.55" y="331.704" width="254.606" height="370.728" rx="20" fill="white"/>
<path d="M1490.72 598.91C1490.72 625.551 1465.64 647.148 1434.71 647.148C1403.77 647.148 1378.69 625.551 1378.69 598.91C1378.69 572.269 1403.77 550.672 1434.71 550.672C1465.64 550.672 1490.72 572.269 1490.72 598.91Z" fill="white"/>
<path fill-rule="evenodd" clip-rule="evenodd" d="M1434.71 643.896C1463.49 643.896 1486.9 623.79 1486.9 598.91C1486.9 574.03 1463.49 553.924 1434.71 553.924C1405.92 553.924 1382.51 574.03 1382.51 598.91C1382.51 623.79 1405.92 643.896 1434.71 643.896ZM1434.71 647.148C1465.64 647.148 1490.72 625.551 1490.72 598.91C1490.72 572.269 1465.64 550.672 1434.71 550.672C1403.77 550.672 1378.69 572.269 1378.69 598.91C1378.69 625.551 1403.77 647.148 1434.71 647.148Z" fill="#BFDBFE"/>
<path d="M1388.88 462.326C1388.88 497.947 1355.25 526.824 1313.77 526.824C1272.29 526.824 1238.66 497.947 1238.66 462.326C1238.66 426.705 1272.29 397.828 1313.77 397.828C1355.25 397.828 1388.88 426.705 1388.88 462.326Z" fill="#BFDBFE"/>
<path d="M1224.66 586.444L1228.25 595.242L1239.19 595.432L1230.47 601.06L1233.64 609.976L1224.66 604.655L1215.68 609.976L1218.85 601.06L1210.13 595.432L1221.06 595.242L1224.66 586.444Z" fill="#FBBF24"/>
<path d="M1276.85 586.444L1280.44 595.242L1291.38 595.432L1282.66 601.06L1285.83 609.976L1276.85 604.655L1267.87 609.976L1271.04 601.06L1262.32 595.432L1273.26 595.242L1276.85 586.444Z" fill="#FBBF24"/>
<path d="M1329.05 586.444L1332.64 595.242L1343.57 595.432L1334.86 601.06L1338.02 609.976L1329.05 604.655L1320.07 609.976L1323.23 601.06L1314.52 595.432L1325.45 595.242L1329.05 586.444Z" fill="#FBBF24"/>
<path d="M1381.24 586.444L1384.83 595.242L1395.77 595.432L1387.05 601.06L1390.22 609.976L1381.24 604.655L1372.26 609.976L1375.43 601.06L1366.71 595.432L1377.65 595.242L1381.24 586.444Z" fill="#FBBF24"/>
<path d="M1433.43 586.444L1437.03 595.242L1447.96 595.432L1439.25 601.06L1442.41 609.976L1433.43 604.655L1424.45 609.976L1427.62 601.06L1418.91 595.432L1429.84 595.242L1433.43 586.444Z" fill="#FBBF24"/>
</g>
<defs>
<clipPath id="clip0_1_106">
<rect x="882.211" y="78.048" width="254.606" height="297.016" rx="20" fill="white"/>
</clipPath>
<clipPath id="clip1_1_106">
<rect x="882.211" y="409.752" width="254.606" height="331.704" rx="20" fill="white"/>
</clipPath>
<clipPath id="clip2_1_106">
<rect x="1177.55" y="331.704" width="254.606" height="370.728" rx="20" fill="white"/>
</clipPath>
</defs>
</svg>
