<svg width="1520" height="41" viewBox="0 0 1520 41" fill="none" xmlns="http://www.w3.org/2000/svg">
<path d="M21 24.6938C18.6987 24.6938 16.8333 22.8284 16.8333 20.5271C16.8333 18.2259 18.6987 16.3605 21 16.3605C23.3012 16.3605 25.1667 18.2259 25.1667 20.5271C25.1667 22.8284 23.3012 24.6938 21 24.6938Z" fill="#E11D48"/>
<path d="M36 24.6938C33.6987 24.6938 31.8333 22.8284 31.8333 20.5271C31.8333 18.2259 33.6987 16.3605 36 16.3605C38.3012 16.3605 40.1667 18.2259 40.1667 20.5271C40.1667 22.8284 38.3012 24.6938 36 24.6938Z" fill="#FBBF24"/>
<path d="M51 24.6938C48.6987 24.6938 46.8333 22.8284 46.8333 20.5271C46.8333 18.2259 48.6987 16.3605 51 16.3605C53.3012 16.3605 55.1667 18.2259 55.1667 20.5271C55.1667 22.8284 53.3012 24.6938 51 24.6938Z" fill="#22C55E"/>
<path d="M1461.76 20.5001L1466.71 25.45C1466.8 25.5423 1466.88 25.6526 1466.93 25.7746C1466.98 25.8966 1467.01 26.0278 1467.01 26.1606C1467.01 26.2934 1466.99 26.4251 1466.94 26.548C1466.89 26.6709 1466.81 26.7825 1466.72 26.8764C1466.63 26.9703 1466.51 27.0446 1466.39 27.0948C1466.27 27.1451 1466.14 27.1704 1466 27.1693C1465.87 27.1681 1465.74 27.1405 1465.62 27.0881C1465.5 27.0357 1465.39 26.9595 1465.29 26.864L1459.64 21.2071C1459.45 21.0195 1459.34 20.7652 1459.34 20.5001C1459.34 20.2349 1459.45 19.9806 1459.64 19.7931L1465.29 14.1361C1465.48 13.9539 1465.73 13.8531 1466 13.8554C1466.26 13.8577 1466.51 13.9628 1466.69 14.1482C1466.88 14.3336 1466.99 14.5845 1466.99 14.8467C1466.99 15.1089 1466.89 15.3615 1466.71 15.5501L1461.76 20.5001Z" fill="#94A3B8"/>
<path d="M1493.31 20.571L1488.36 15.621C1488.18 15.4324 1488.08 15.1798 1488.08 14.9176C1488.09 14.6554 1488.19 14.4046 1488.38 14.2192C1488.56 14.0338 1488.81 13.9286 1489.07 13.9263C1489.34 13.924 1489.59 14.0248 1489.78 14.207L1495.43 19.864C1495.62 20.0515 1495.73 20.3058 1495.73 20.571C1495.73 20.8361 1495.62 21.0904 1495.43 21.278L1489.78 26.935C1489.59 27.1172 1489.34 27.218 1489.07 27.2157C1488.81 27.2134 1488.56 27.1082 1488.38 26.9228C1488.19 26.7374 1488.09 26.4866 1488.08 26.2244C1488.08 25.9622 1488.18 25.7096 1488.36 25.521L1493.31 20.571Z" fill="#475569"/>
<rect x="419.399" y="8" width="683.867" height="25" rx="5" fill="#F1F5F9"/>
<path d="M721.264 23.875L722.892 18.6602H723.607L723.467 19.6973L721.808 25H721.111L721.264 23.875ZM720.168 18.6602L721.557 23.9336L721.656 25H720.924L719.084 18.6602H720.168ZM725.166 23.8926L726.49 18.6602H727.568L725.728 25H725.002L725.166 23.8926ZM723.766 18.6602L725.359 23.7871L725.541 25H724.849L723.144 19.6855L723.004 18.6602H723.766ZM730.287 23.875L731.916 18.6602H732.631L732.49 19.6973L730.832 25H730.135L730.287 23.875ZM729.191 18.6602L730.58 23.9336L730.68 25H729.947L728.107 18.6602H729.191ZM734.189 23.8926L735.514 18.6602H736.592L734.752 25H734.025L734.189 23.8926ZM732.789 18.6602L734.383 23.7871L734.564 25H733.873L732.168 19.6855L732.027 18.6602H732.789ZM739.31 23.875L740.939 18.6602H741.654L741.514 19.6973L739.855 25H739.158L739.31 23.875ZM738.215 18.6602L739.603 23.9336L739.703 25H738.971L737.131 18.6602H738.215ZM743.213 23.8926L744.537 18.6602H745.615L743.775 25H743.049L743.213 23.8926ZM741.812 18.6602L743.406 23.7871L743.588 25H742.896L741.191 19.6855L741.051 18.6602H741.812ZM746.019 24.4258C746.019 24.2422 746.076 24.0879 746.189 23.9629C746.307 23.834 746.474 23.7695 746.693 23.7695C746.912 23.7695 747.078 23.834 747.191 23.9629C747.308 24.0879 747.367 24.2422 747.367 24.4258C747.367 24.6055 747.308 24.7578 747.191 24.8828C747.078 25.0078 746.912 25.0703 746.693 25.0703C746.474 25.0703 746.307 25.0078 746.189 24.8828C746.076 24.7578 746.019 24.6055 746.019 24.4258ZM752.857 23.3184C752.857 23.1621 752.822 23.0176 752.752 22.8848C752.685 22.748 752.547 22.625 752.336 22.5156C752.129 22.4023 751.816 22.3047 751.398 22.2227C751.047 22.1484 750.728 22.0605 750.443 21.959C750.162 21.8574 749.922 21.7344 749.723 21.5898C749.527 21.4453 749.377 21.2754 749.271 21.0801C749.166 20.8848 749.113 20.6562 749.113 20.3945C749.113 20.1445 749.168 19.9082 749.277 19.6855C749.391 19.4629 749.549 19.2656 749.752 19.0938C749.959 18.9219 750.207 18.7871 750.496 18.6895C750.785 18.5918 751.107 18.543 751.463 18.543C751.971 18.543 752.404 18.6328 752.764 18.8125C753.123 18.9922 753.398 19.2324 753.59 19.5332C753.781 19.8301 753.877 20.1602 753.877 20.5234H752.793C752.793 20.3477 752.74 20.1777 752.635 20.0137C752.533 19.8457 752.383 19.707 752.183 19.5977C751.988 19.4883 751.748 19.4336 751.463 19.4336C751.162 19.4336 750.918 19.4805 750.73 19.5742C750.547 19.6641 750.412 19.7793 750.326 19.9199C750.244 20.0605 750.203 20.209 750.203 20.3652C750.203 20.4824 750.223 20.5879 750.262 20.6816C750.305 20.7715 750.379 20.8555 750.484 20.9336C750.59 21.0078 750.738 21.0781 750.93 21.1445C751.121 21.2109 751.365 21.2773 751.662 21.3438C752.182 21.4609 752.609 21.6016 752.945 21.7656C753.281 21.9297 753.531 22.1309 753.695 22.3691C753.859 22.6074 753.941 22.8965 753.941 23.2363C753.941 23.5137 753.883 23.7676 753.766 23.998C753.652 24.2285 753.486 24.4277 753.267 24.5957C753.053 24.7598 752.795 24.8887 752.494 24.9824C752.197 25.0723 751.863 25.1172 751.492 25.1172C750.933 25.1172 750.461 25.0176 750.074 24.8184C749.687 24.6191 749.394 24.3613 749.195 24.0449C748.996 23.7285 748.896 23.3945 748.896 23.043H749.986C750.002 23.3398 750.088 23.5762 750.244 23.752C750.4 23.9238 750.592 24.0469 750.818 24.1211C751.045 24.1914 751.269 24.2266 751.492 24.2266C751.789 24.2266 752.037 24.1875 752.236 24.1094C752.439 24.0312 752.594 23.9238 752.699 23.7871C752.805 23.6504 752.857 23.4941 752.857 23.3184ZM755.078 21.9004V21.7656C755.078 21.3086 755.144 20.8848 755.277 20.4941C755.41 20.0996 755.601 19.7578 755.851 19.4688C756.101 19.1758 756.404 18.9492 756.76 18.7891C757.115 18.625 757.514 18.543 757.955 18.543C758.4 18.543 758.801 18.625 759.156 18.7891C759.516 18.9492 759.82 19.1758 760.07 19.4688C760.324 19.7578 760.517 20.0996 760.65 20.4941C760.783 20.8848 760.849 21.3086 760.849 21.7656V21.9004C760.849 22.3574 760.783 22.7812 760.65 23.1719C760.517 23.5625 760.324 23.9043 760.07 24.1973C759.82 24.4863 759.517 24.7129 759.162 24.877C758.81 25.0371 758.412 25.1172 757.967 25.1172C757.521 25.1172 757.121 25.0371 756.766 24.877C756.41 24.7129 756.105 24.4863 755.851 24.1973C755.601 23.9043 755.41 23.5625 755.277 23.1719C755.144 22.7812 755.078 22.3574 755.078 21.9004ZM756.162 21.7656V21.9004C756.162 22.2168 756.199 22.5156 756.273 22.7969C756.348 23.0742 756.459 23.3203 756.607 23.5352C756.76 23.75 756.949 23.9199 757.176 24.0449C757.402 24.166 757.666 24.2266 757.967 24.2266C758.264 24.2266 758.523 24.166 758.746 24.0449C758.973 23.9199 759.16 23.75 759.308 23.5352C759.457 23.3203 759.568 23.0742 759.642 22.7969C759.721 22.5156 759.76 22.2168 759.76 21.9004V21.7656C759.76 21.4531 759.721 21.1582 759.642 20.8809C759.568 20.5996 759.455 20.3516 759.303 20.1367C759.154 19.918 758.967 19.7461 758.74 19.6211C758.517 19.4961 758.256 19.4336 757.955 19.4336C757.658 19.4336 757.396 19.4961 757.17 19.6211C756.947 19.7461 756.76 19.918 756.607 20.1367C756.459 20.3516 756.348 20.5996 756.273 20.8809C756.199 21.1582 756.162 21.4531 756.162 21.7656ZM763.387 16V25H762.297V16H763.387ZM766.305 16V25H765.215V16H766.305ZM770.676 25.1172C770.234 25.1172 769.834 25.043 769.474 24.8945C769.119 24.7422 768.812 24.5293 768.555 24.2559C768.301 23.9824 768.105 23.6582 767.969 23.2832C767.832 22.9082 767.764 22.498 767.764 22.0527V21.8066C767.764 21.291 767.84 20.832 767.992 20.4297C768.144 20.0234 768.351 19.6797 768.613 19.3984C768.875 19.1172 769.172 18.9043 769.504 18.7598C769.836 18.6152 770.18 18.543 770.535 18.543C770.988 18.543 771.379 18.6211 771.707 18.7773C772.039 18.9336 772.31 19.1523 772.521 19.4336C772.732 19.7109 772.889 20.0391 772.99 20.418C773.092 20.793 773.142 21.2031 773.142 21.6484V22.1348H768.408V21.25H772.058V21.168C772.043 20.8867 771.984 20.6133 771.883 20.3477C771.785 20.082 771.629 19.8633 771.414 19.6914C771.199 19.5195 770.906 19.4336 770.535 19.4336C770.289 19.4336 770.062 19.4863 769.855 19.5918C769.648 19.6934 769.471 19.8457 769.322 20.0488C769.174 20.252 769.058 20.5 768.976 20.793C768.894 21.0859 768.853 21.4238 768.853 21.8066V22.0527C768.853 22.3535 768.894 22.6367 768.976 22.9023C769.062 23.1641 769.185 23.3945 769.346 23.5938C769.51 23.793 769.707 23.9492 769.937 24.0625C770.172 24.1758 770.437 24.2324 770.734 24.2324C771.117 24.2324 771.441 24.1543 771.707 23.998C771.973 23.8418 772.205 23.6328 772.404 23.3711L773.06 23.8926C772.924 24.0996 772.75 24.2969 772.539 24.4844C772.328 24.6719 772.068 24.8242 771.76 24.9414C771.455 25.0586 771.094 25.1172 770.676 25.1172ZM775.492 19.6562V25H774.408V18.6602H775.463L775.492 19.6562ZM777.473 18.625L777.467 19.6328C777.377 19.6133 777.291 19.6016 777.209 19.5977C777.131 19.5898 777.041 19.5859 776.939 19.5859C776.689 19.5859 776.469 19.625 776.277 19.7031C776.086 19.7812 775.924 19.8906 775.791 20.0312C775.658 20.1719 775.553 20.3398 775.474 20.5352C775.4 20.7266 775.351 20.9375 775.328 21.168L775.023 21.3438C775.023 20.9609 775.06 20.6016 775.135 20.2656C775.213 19.9297 775.332 19.6328 775.492 19.375C775.652 19.1133 775.855 18.9102 776.101 18.7656C776.351 18.6172 776.648 18.543 776.992 18.543C777.07 18.543 777.16 18.5527 777.262 18.5723C777.363 18.5879 777.433 18.6055 777.473 18.625ZM777.766 24.4258C777.766 24.2422 777.822 24.0879 777.935 23.9629C778.053 23.834 778.221 23.7695 778.439 23.7695C778.658 23.7695 778.824 23.834 778.937 23.9629C779.055 24.0879 779.113 24.2422 779.113 24.4258C779.113 24.6055 779.055 24.7578 778.937 24.8828C778.824 25.0078 778.658 25.0703 778.439 25.0703C778.221 25.0703 778.053 25.0078 777.935 24.8828C777.822 24.7578 777.766 24.6055 777.766 24.4258ZM783.449 24.2266C783.707 24.2266 783.945 24.1738 784.164 24.0684C784.383 23.9629 784.562 23.8184 784.703 23.6348C784.844 23.4473 784.924 23.2344 784.943 22.9961H785.974C785.955 23.3711 785.828 23.7207 785.594 24.0449C785.363 24.3652 785.06 24.625 784.685 24.8242C784.31 25.0195 783.898 25.1172 783.449 25.1172C782.973 25.1172 782.557 25.0332 782.201 24.8652C781.849 24.6973 781.557 24.4668 781.322 24.1738C781.092 23.8809 780.918 23.5449 780.801 23.166C780.687 22.7832 780.631 22.3789 780.631 21.9531V21.707C780.631 21.2812 780.687 20.8789 780.801 20.5C780.918 20.1172 781.092 19.7793 781.322 19.4863C781.557 19.1934 781.849 18.9629 782.201 18.7949C782.557 18.627 782.973 18.543 783.449 18.543C783.945 18.543 784.379 18.6445 784.75 18.8477C785.121 19.0469 785.412 19.3203 785.623 19.668C785.838 20.0117 785.955 20.4023 785.974 20.8398H784.943C784.924 20.5781 784.849 20.3418 784.721 20.1309C784.596 19.9199 784.424 19.752 784.205 19.627C783.99 19.498 783.738 19.4336 783.449 19.4336C783.117 19.4336 782.838 19.5 782.611 19.6328C782.389 19.7617 782.211 19.9375 782.078 20.1602C781.949 20.3789 781.855 20.623 781.797 20.8926C781.742 21.1582 781.715 21.4297 781.715 21.707V21.9531C781.715 22.2305 781.742 22.5039 781.797 22.7734C781.851 23.043 781.943 23.2871 782.072 23.5059C782.205 23.7246 782.383 23.9004 782.605 24.0332C782.832 24.1621 783.113 24.2266 783.449 24.2266ZM786.906 21.9004V21.7656C786.906 21.3086 786.973 20.8848 787.105 20.4941C787.238 20.0996 787.43 19.7578 787.68 19.4688C787.93 19.1758 788.232 18.9492 788.588 18.7891C788.943 18.625 789.342 18.543 789.783 18.543C790.228 18.543 790.629 18.625 790.984 18.7891C791.344 18.9492 791.648 19.1758 791.898 19.4688C792.152 19.7578 792.346 20.0996 792.478 20.4941C792.611 20.8848 792.678 21.3086 792.678 21.7656V21.9004C792.678 22.3574 792.611 22.7812 792.478 23.1719C792.346 23.5625 792.152 23.9043 791.898 24.1973C791.648 24.4863 791.346 24.7129 790.99 24.877C790.639 25.0371 790.24 25.1172 789.795 25.1172C789.349 25.1172 788.949 25.0371 788.594 24.877C788.238 24.7129 787.933 24.4863 787.68 24.1973C787.43 23.9043 787.238 23.5625 787.105 23.1719C786.973 22.7812 786.906 22.3574 786.906 21.9004ZM787.99 21.7656V21.9004C787.99 22.2168 788.027 22.5156 788.101 22.7969C788.176 23.0742 788.287 23.3203 788.435 23.5352C788.588 23.75 788.777 23.9199 789.004 24.0449C789.23 24.166 789.494 24.2266 789.795 24.2266C790.092 24.2266 790.351 24.166 790.574 24.0449C790.801 23.9199 790.988 23.75 791.137 23.5352C791.285 23.3203 791.396 23.0742 791.471 22.7969C791.549 22.5156 791.588 22.2168 791.588 21.9004V21.7656C791.588 21.4531 791.549 21.1582 791.471 20.8809C791.396 20.5996 791.283 20.3516 791.131 20.1367C790.982 19.918 790.795 19.7461 790.568 19.6211C790.346 19.4961 790.084 19.4336 789.783 19.4336C789.486 19.4336 789.224 19.4961 788.998 19.6211C788.775 19.7461 788.588 19.918 788.435 20.1367C788.287 20.3516 788.176 20.5996 788.101 20.8809C788.027 21.1582 787.99 21.4531 787.99 21.7656ZM795.115 19.9199V25H794.025V18.6602H795.057L795.115 19.9199ZM794.892 21.5898L794.389 21.5723C794.392 21.1387 794.449 20.7383 794.558 20.3711C794.668 20 794.83 19.6777 795.045 19.4043C795.26 19.1309 795.527 18.9199 795.848 18.7715C796.168 18.6191 796.539 18.543 796.961 18.543C797.258 18.543 797.531 18.5859 797.781 18.6719C798.031 18.7539 798.248 18.8848 798.432 19.0645C798.615 19.2441 798.758 19.4746 798.859 19.7559C798.961 20.0371 799.012 20.377 799.012 20.7754V25H797.928V20.8281C797.928 20.4961 797.871 20.2305 797.758 20.0312C797.648 19.832 797.492 19.6875 797.289 19.5977C797.086 19.5039 796.848 19.457 796.574 19.457C796.254 19.457 795.986 19.5137 795.771 19.627C795.557 19.7402 795.385 19.8965 795.256 20.0957C795.127 20.2949 795.033 20.5234 794.974 20.7812C794.92 21.0352 794.892 21.3047 794.892 21.5898ZM799 20.9922L798.273 21.2148C798.277 20.8672 798.334 20.5332 798.443 20.2129C798.557 19.8926 798.719 19.6074 798.93 19.3574C799.144 19.1074 799.408 18.9102 799.721 18.7656C800.033 18.6172 800.391 18.543 800.793 18.543C801.133 18.543 801.433 18.5879 801.695 18.6777C801.961 18.7676 802.183 18.9062 802.363 19.0938C802.547 19.2773 802.685 19.5137 802.779 19.8027C802.873 20.0918 802.92 20.4355 802.92 20.834V25H801.83V20.8223C801.83 20.4668 801.773 20.1914 801.66 19.9961C801.551 19.7969 801.394 19.6582 801.191 19.5801C800.992 19.498 800.754 19.457 800.476 19.457C800.238 19.457 800.027 19.498 799.844 19.5801C799.66 19.6621 799.506 19.7754 799.381 19.9199C799.256 20.0605 799.16 20.2227 799.094 20.4062C799.031 20.5898 799 20.7852 799 20.9922Z" fill="#94A3B8"/>
</svg>
